<svg width="235" height="201" viewBox="0 0 235 201" fill="none" xmlns="http://www.w3.org/2000/svg">
<path d="M106 131L90 68.5L187.5 0L225.5 148L106 131Z" fill="#3E327E"/>
<path d="M67.84 140L33 148.066L47.04 201L72 194.446L68.88 187.388L69.92 178.818L66.8 172.769L69.92 166.215L65.24 159.157L68.88 154.116L67.84 140Z" fill="#3E327E"/>
<path d="M90.1857 68L7.13333 91.0732L0 101.037L15.2857 154L107 130.402L90.1857 68Z" fill="#4D4091"/>
<path d="M230.258 80.0446C234.97 61.1594 210.156 44.146 197.16 38L213.743 106.508C217.285 105.556 225.546 98.9299 230.258 80.0446Z" fill="#4D4090"/>
<rect x="18" y="110.881" width="50" height="6" transform="rotate(-16.1184 18 110.881)" fill="#6D5EBE"/>
<rect x="16" y="99.8809" width="50" height="6" transform="rotate(-16.1184 16 99.8809)" fill="#6D5EBE"/>
</svg>
