<?xml version="1.0" encoding="UTF-8" standalone="no"?>
<!-- Created with Inkscape (http://www.inkscape.org/) -->

<svg
   width="999.99988mm"
   height="1000.0001mm"
   viewBox="0 0 999.99988 1000.0001"
   version="1.1"
   id="svg5"
   inkscape:version="1.2.2 (b0a8486541, 2022-12-01)"
   sodipodi:docname="ikon ifest.svg"
   inkscape:export-filename="mencegah penyakit serius.png"
   inkscape:export-xdpi="96"
   inkscape:export-ydpi="96"
   xml:space="preserve"
   xmlns:inkscape="http://www.inkscape.org/namespaces/inkscape"
   xmlns:sodipodi="http://sodipodi.sourceforge.net/DTD/sodipodi-0.dtd"
   xmlns="http://www.w3.org/2000/svg"
   xmlns:svg="http://www.w3.org/2000/svg"><sodipodi:namedview
     id="namedview7"
     pagecolor="#505050"
     bordercolor="#ffffff"
     borderopacity="1"
     inkscape:showpageshadow="0"
     inkscape:pageopacity="0"
     inkscape:pagecheckerboard="1"
     inkscape:deskcolor="#505050"
     inkscape:document-units="mm"
     showgrid="false"
     inkscape:zoom="0.028544589"
     inkscape:cx="-87.582274"
     inkscape:cy="2469.8201"
     inkscape:window-width="1366"
     inkscape:window-height="720"
     inkscape:window-x="0"
     inkscape:window-y="0"
     inkscape:window-maximized="1"
     inkscape:current-layer="g888" /><defs
     id="defs2" /><g
     inkscape:label="Layer 1"
     inkscape:groupmode="layer"
     id="layer1"
     transform="translate(-1122.2365,-1098.1171)"><g
       id="g3956"
       transform="translate(36.040206,33.812648)"><g
         id="g888"
         transform="matrix(1.0146788,0,0,1.0146788,21.523496,1060.2108)"
         style="stroke-width:82.4321;stroke-dasharray:none"><circle
           style="fill:none;stroke:#ff95c1;stroke-width:61.1038;stroke-dasharray:none;stroke-opacity:1"
           id="circle880"
           cx="-609.49261"
           cy="653.76831"
           r="242.69075"
           transform="scale(-1,1)" /><path
           style="fill:#ff95c1;fill-opacity:1;stroke:#ff95c1;stroke-width:58.4431;stroke-dasharray:none;stroke-opacity:1"
           d="m 496.81672,727.14874 c 87.69353,53.76806 111.12489,51.83536 208.41704,27.68218"
           id="path886"
           sodipodi:nodetypes="cc" /><circle
           style="fill:none;stroke:#ff95c1;stroke-width:34.0661;stroke-dasharray:none"
           id="path1040"
           cx="-692.60828"
           cy="590.02899"
           r="17.735437"
           transform="scale(-1,1)" /><circle
           style="fill:none;stroke:#ff95c1;stroke-width:34.0661;stroke-dasharray:none"
           id="circle1042"
           cx="-539.56281"
           cy="572.29346"
           r="17.735437"
           transform="scale(-1,1)" /><text
           xml:space="preserve"
           style="font-size:296.696px;letter-spacing:41.7209px;fill:none;stroke:#ff95c1;stroke-width:28.0342;stroke-dasharray:none"
           x="-54.439846"
           y="278.18219"
           id="text1098"><tspan
             sodipodi:role="line"
             id="tspan1096"
             style="font-size:296.696px;fill:none;fill-opacity:1;stroke:#ff95c1;stroke-width:28.0342;stroke-dasharray:none;stroke-opacity:1"
             x="-54.439846"
             y="278.18219"
             dx="80">+xx</tspan></text><g
           style="fill:#000000"
           id="g4024"
           transform="matrix(0.44223905,0,0,0.44223905,900.86746,-126.88183)"><g
             id="g4398"
             transform="translate(-14.665403,67.018313)"><g
               id="g4015"
               transform="matrix(2.7067115,-0.49883881,0.49883881,2.7067115,512.77417,1082.4052)"
               style="fill:none;stroke:#ff95c1;stroke-width:36.846;stroke-dasharray:none;stroke-opacity:1">
	<path
   d="m 433.601,67.001 c -24.7,-24.7 -57.4,-38.2 -92.3,-38.2 -34.9,0 -67.7,13.6 -92.4,38.3 l -12.9,12.9 -13.1,-13.1 c -24.7,-24.7 -57.6,-38.4 -92.5,-38.4 -34.8,0 -67.6,13.6 -92.2,38.2 -24.7,24.7 -38.3,57.5 -38.2,92.4 0,34.9 13.7,67.6 38.4,92.3 l 187.8,187.8 c 2.6,2.6 6.1,4 9.5,4 3.4,0 6.9,-1.3 9.5,-3.9 l 188.2,-187.5 c 24.7,-24.7 38.3,-57.5 38.3,-92.4 0.1,-34.9 -13.4,-67.7 -38.1,-92.4 z m -19.2,165.7 -178.7,178 -178.3,-178.3 c -19.6,-19.6 -30.4,-45.6 -30.4,-73.3 0,-27.7 10.7,-53.7 30.3,-73.2 19.5,-19.5 45.5,-30.3 73.1,-30.3 27.7,0 53.8,10.8 73.4,30.4 l 22.6,22.6 c 5.3,5.3 13.8,5.3 19.1,0 l 22.4,-22.4 c 19.6,-19.6 45.7,-30.4 73.3,-30.4 27.6,0 53.6,10.8 73.2,30.3 19.6,19.6 30.3,45.6 30.3,73.3 0.1,27.7 -10.7,53.7 -30.3,73.3 z"
   id="path4013"
   style="fill:none;stroke:#ff95c1;stroke-width:36.846;stroke-dasharray:none;stroke-opacity:1" />
</g><g
               id="g4392"
               transform="matrix(1.0896895,0.29323957,-0.29323957,1.0896895,1900.4479,427.33305)"
               style="fill:none;stroke:#ff95c1;stroke-width:59.2449;stroke-dasharray:none;stroke-opacity:1">
	<path
   d="m 433.601,67.001 c -24.7,-24.7 -57.4,-38.2 -92.3,-38.2 -34.9,0 -67.7,13.6 -92.4,38.3 l -12.9,12.9 -13.1,-13.1 c -24.7,-24.7 -57.6,-38.4 -92.5,-38.4 -34.8,0 -67.6,13.6 -92.2,38.2 -24.7,24.7 -38.3,57.5 -38.2,92.4 0,34.9 13.7,67.6 38.4,92.3 l 187.8,187.8 c 2.6,2.6 6.1,4 9.5,4 3.4,0 6.9,-1.3 9.5,-3.9 l 188.2,-187.5 c 24.7,-24.7 38.3,-57.5 38.3,-92.4 0.1,-34.9 -13.4,-67.7 -38.1,-92.4 z m -19.2,165.7 -178.7,178 -178.3,-178.3 c -19.6,-19.6 -30.4,-45.6 -30.4,-73.3 0,-27.7 10.7,-53.7 30.3,-73.2 19.5,-19.5 45.5,-30.3 73.1,-30.3 27.7,0 53.8,10.8 73.4,30.4 l 22.6,22.6 c 5.3,5.3 13.8,5.3 19.1,0 l 22.4,-22.4 c 19.6,-19.6 45.7,-30.4 73.3,-30.4 27.6,0 53.6,10.8 73.2,30.3 19.6,19.6 30.3,45.6 30.3,73.3 0.1,27.7 -10.7,53.7 -30.3,73.3 z"
   id="path4390"
   style="fill:none;stroke:#ff95c1;stroke-width:59.2449;stroke-dasharray:none;stroke-opacity:1" />
</g></g></g></g></g></g></svg>
