<svg width="64" height="64" viewBox="0 0 64 64" fill="none" xmlns="http://www.w3.org/2000/svg">
<path d="M14.08 49.7332L15.6 43.1466C15.9467 41.5999 15.3334 39.4399 14.2134 38.3199L7.60004 31.7066C3.70671 27.8133 4.96004 23.8666 10.4 22.9599L18.9067 21.5466C20.32 21.3066 22.0267 20.0533 22.6667 18.7466L27.36 9.35992C29.8934 4.26659 34.0534 4.26659 36.6134 9.35992L41.3067 18.7466C41.6 19.3599 42.16 19.9466 42.7734 20.4533M53.6 22.9599C59.04 23.8666 60.32 27.8133 56.4 31.7066L49.7867 38.3199C48.6667 39.4399 48.0534 41.5999 48.4 43.1466L50.2934 51.3332C51.7867 57.8132 48.3467 60.3199 42.6134 56.9332L34.64 52.2132C33.2 51.3599 30.8267 51.3599 29.36 52.2132L21.3867 56.9332M58.6667 5.33325L5.33337 58.6666" stroke="#5BA7C0" stroke-width="6" stroke-linecap="round" stroke-linejoin="round"/>
</svg>
